<mxfile host="Electron" agent="Mozilla/5.0 (Windows NT 10.0; Win64; x64) AppleWebKit/537.36 (KHTML, like Gecko) draw.io/24.7.17 Chrome/128.0.6613.36 Electron/32.0.1 Safari/537.36" version="24.7.17">
  <diagram name="Page-1" id="KuhYVLjEmkgfeT89QWm0">
    <mxGraphModel dx="2840" dy="1740" grid="1" gridSize="10" guides="1" tooltips="1" connect="1" arrows="1" fold="1" page="1" pageScale="1" pageWidth="850" pageHeight="1100" math="0" shadow="0">
      <root>
        <mxCell id="0" />
        <mxCell id="1" parent="0" />
        <mxCell id="Q1b4sD6pPip9hb0ui8Go-32" value="Menubar" style="rounded=1;whiteSpace=wrap;html=1;" vertex="1" parent="1">
          <mxGeometry x="240" y="70" width="120" height="60" as="geometry" />
        </mxCell>
        <mxCell id="Q1b4sD6pPip9hb0ui8Go-42" value="&lt;font style=&quot;font-size: 12px;&quot;&gt;&lt;u style=&quot;&quot;&gt;&lt;b style=&quot;&quot;&gt;Settings Menu&lt;/b&gt;&lt;/u&gt;:&amp;nbsp;&lt;/font&gt;&lt;div style=&quot;&quot;&gt;&lt;font style=&quot;font-size: 12px;&quot;&gt;1. &lt;b&gt;Default music directory&lt;br&gt;&lt;/b&gt;&lt;/font&gt;&lt;div style=&quot;&quot;&gt;&lt;font style=&quot;font-size: 12px;&quot;&gt;&lt;b&gt;2. Music Provider&lt;/b&gt;: list_checkbox&lt;/font&gt;&lt;/div&gt;&lt;div style=&quot;&quot;&gt;&lt;font style=&quot;font-size: 12px;&quot;&gt;- zotify&lt;/font&gt;&lt;/div&gt;&lt;div style=&quot;&quot;&gt;&lt;font style=&quot;font-size: 12px;&quot;&gt;- yt-dlp&lt;/font&gt;&lt;/div&gt;&lt;div style=&quot;&quot;&gt;&lt;font style=&quot;font-size: 12px;&quot;&gt;&lt;b&gt;3. Lyrics Provider: &lt;/b&gt;list_checkbox&lt;/font&gt;&lt;/div&gt;&lt;div style=&quot;&quot;&gt;&lt;font style=&quot;font-size: 12px;&quot;&gt;&lt;span style=&quot;background-color: initial;&quot;&gt;- lrcdl&lt;/span&gt;&lt;br&gt;&lt;/font&gt;&lt;/div&gt;&lt;div style=&quot;&quot;&gt;&lt;font style=&quot;font-size: 12px;&quot;&gt;- syrics&lt;/font&gt;&lt;/div&gt;&lt;/div&gt;" style="rounded=1;whiteSpace=wrap;html=1;align=left;" vertex="1" parent="1">
          <mxGeometry x="70" y="220" width="190" height="150" as="geometry" />
        </mxCell>
        <mxCell id="Q1b4sD6pPip9hb0ui8Go-43" style="edgeStyle=orthogonalEdgeStyle;rounded=0;orthogonalLoop=1;jettySize=auto;html=1;exitX=0.25;exitY=1;exitDx=0;exitDy=0;entryX=0.294;entryY=0.016;entryDx=0;entryDy=0;entryPerimeter=0;flowAnimation=1;" edge="1" parent="1" source="Q1b4sD6pPip9hb0ui8Go-32" target="Q1b4sD6pPip9hb0ui8Go-42">
          <mxGeometry relative="1" as="geometry" />
        </mxCell>
        <mxCell id="Q1b4sD6pPip9hb0ui8Go-108" value="" style="edgeStyle=orthogonalEdgeStyle;rounded=0;orthogonalLoop=1;jettySize=auto;html=1;" edge="1" parent="1" source="Q1b4sD6pPip9hb0ui8Go-44">
          <mxGeometry relative="1" as="geometry">
            <mxPoint x="995.0000000000002" y="620" as="targetPoint" />
          </mxGeometry>
        </mxCell>
        <mxCell id="Q1b4sD6pPip9hb0ui8Go-44" value="" style="rounded=0;whiteSpace=wrap;html=1;movable=1;resizable=1;rotatable=1;deletable=1;editable=1;locked=0;connectable=1;fillColor=#dae8fc;strokeColor=#6c8ebf;" vertex="1" parent="1">
          <mxGeometry x="522.5" y="80" width="770" height="470" as="geometry" />
        </mxCell>
        <mxCell id="Q1b4sD6pPip9hb0ui8Go-45" value="Main Widget" style="text;html=1;align=center;verticalAlign=middle;whiteSpace=wrap;rounded=0;fillColor=#fff2cc;strokeColor=#d6b656;movable=0;resizable=0;rotatable=0;deletable=0;editable=0;locked=1;connectable=0;" vertex="1" parent="1">
          <mxGeometry x="560" y="170" width="90" height="30" as="geometry" />
        </mxCell>
        <mxCell id="Q1b4sD6pPip9hb0ui8Go-47" value="1. window title&lt;div&gt;2. window icon&lt;br&gt;&lt;div&gt;&lt;br&gt;&lt;/div&gt;&lt;/div&gt;" style="text;html=1;align=left;verticalAlign=middle;whiteSpace=wrap;rounded=0;movable=0;resizable=0;rotatable=0;deletable=0;editable=0;locked=1;connectable=0;" vertex="1" parent="1">
          <mxGeometry x="560" y="210" width="110" height="30" as="geometry" />
        </mxCell>
        <mxCell id="Q1b4sD6pPip9hb0ui8Go-101" style="edgeStyle=orthogonalEdgeStyle;rounded=0;orthogonalLoop=1;jettySize=auto;html=1;flowAnimation=1;movable=0;resizable=0;rotatable=0;deletable=0;editable=0;locked=1;connectable=0;" edge="1" parent="1" source="Q1b4sD6pPip9hb0ui8Go-52" target="Q1b4sD6pPip9hb0ui8Go-54">
          <mxGeometry relative="1" as="geometry" />
        </mxCell>
        <mxCell id="Q1b4sD6pPip9hb0ui8Go-52" value="textedit search bar" style="rounded=1;whiteSpace=wrap;html=1;fillColor=#d5e8d4;strokeColor=#82b366;movable=0;resizable=0;rotatable=0;deletable=0;editable=0;locked=1;connectable=0;" vertex="1" parent="1">
          <mxGeometry x="575" y="240" width="120" height="50" as="geometry" />
        </mxCell>
        <mxCell id="Q1b4sD6pPip9hb0ui8Go-74" value="" style="edgeStyle=orthogonalEdgeStyle;rounded=0;orthogonalLoop=1;jettySize=auto;html=1;flowAnimation=1;movable=0;resizable=0;rotatable=0;deletable=0;editable=0;locked=1;connectable=0;" edge="1" parent="1" source="Q1b4sD6pPip9hb0ui8Go-58" target="Q1b4sD6pPip9hb0ui8Go-75">
          <mxGeometry relative="1" as="geometry">
            <mxPoint x="880" y="265" as="targetPoint" />
          </mxGeometry>
        </mxCell>
        <mxCell id="Q1b4sD6pPip9hb0ui8Go-58" value="press enter" style="ellipse;whiteSpace=wrap;html=1;aspect=fixed;fillColor=#e1d5e7;strokeColor=#9673a6;movable=0;resizable=0;rotatable=0;deletable=0;editable=0;locked=1;connectable=0;" vertex="1" parent="1">
          <mxGeometry x="810" y="150" width="50" height="50" as="geometry" />
        </mxCell>
        <mxCell id="Q1b4sD6pPip9hb0ui8Go-102" style="edgeStyle=orthogonalEdgeStyle;rounded=0;orthogonalLoop=1;jettySize=auto;html=1;entryX=0;entryY=0.5;entryDx=0;entryDy=0;flowAnimation=1;movable=0;resizable=0;rotatable=0;deletable=0;editable=0;locked=1;connectable=0;" edge="1" parent="1" source="Q1b4sD6pPip9hb0ui8Go-54" target="Q1b4sD6pPip9hb0ui8Go-58">
          <mxGeometry relative="1" as="geometry" />
        </mxCell>
        <mxCell id="Q1b4sD6pPip9hb0ui8Go-54" value="search&lt;div&gt;button&lt;/div&gt;" style="ellipse;whiteSpace=wrap;html=1;aspect=fixed;fillColor=#e1d5e7;strokeColor=#9673a6;movable=0;resizable=0;rotatable=0;deletable=0;editable=0;locked=1;connectable=0;" vertex="1" parent="1">
          <mxGeometry x="750" y="250" width="50" height="50" as="geometry" />
        </mxCell>
        <mxCell id="Q1b4sD6pPip9hb0ui8Go-77" value="" style="edgeStyle=orthogonalEdgeStyle;rounded=0;orthogonalLoop=1;jettySize=auto;html=1;flowAnimation=1;movable=0;resizable=0;rotatable=0;deletable=0;editable=0;locked=1;connectable=0;" edge="1" parent="1" source="Q1b4sD6pPip9hb0ui8Go-75" target="Q1b4sD6pPip9hb0ui8Go-76">
          <mxGeometry relative="1" as="geometry" />
        </mxCell>
        <mxCell id="Q1b4sD6pPip9hb0ui8Go-80" value="if connection successful" style="edgeLabel;html=1;align=center;verticalAlign=middle;resizable=0;points=[];movable=0;rotatable=0;deletable=0;editable=0;locked=1;connectable=0;" vertex="1" connectable="0" parent="Q1b4sD6pPip9hb0ui8Go-77">
          <mxGeometry x="-0.4975" y="-1" relative="1" as="geometry">
            <mxPoint x="1" y="10" as="offset" />
          </mxGeometry>
        </mxCell>
        <mxCell id="Q1b4sD6pPip9hb0ui8Go-82" style="edgeStyle=orthogonalEdgeStyle;rounded=0;orthogonalLoop=1;jettySize=auto;html=1;entryX=0.5;entryY=0;entryDx=0;entryDy=0;flowAnimation=1;movable=0;resizable=0;rotatable=0;deletable=0;editable=0;locked=1;connectable=0;" edge="1" parent="1" source="Q1b4sD6pPip9hb0ui8Go-75" target="Q1b4sD6pPip9hb0ui8Go-81">
          <mxGeometry relative="1" as="geometry" />
        </mxCell>
        <mxCell id="Q1b4sD6pPip9hb0ui8Go-83" value="if failed" style="edgeLabel;html=1;align=center;verticalAlign=middle;resizable=0;points=[];movable=0;rotatable=0;deletable=0;editable=0;locked=1;connectable=0;" vertex="1" connectable="0" parent="Q1b4sD6pPip9hb0ui8Go-82">
          <mxGeometry x="-0.1868" y="1" relative="1" as="geometry">
            <mxPoint as="offset" />
          </mxGeometry>
        </mxCell>
        <mxCell id="Q1b4sD6pPip9hb0ui8Go-75" value="start_zotify" style="rounded=1;whiteSpace=wrap;html=1;fillColor=#d5e8d4;strokeColor=#82b366;movable=0;resizable=0;rotatable=0;deletable=0;editable=0;locked=1;connectable=0;" vertex="1" parent="1">
          <mxGeometry x="870" y="207.5" width="120" height="42.5" as="geometry" />
        </mxCell>
        <mxCell id="Q1b4sD6pPip9hb0ui8Go-79" value="" style="edgeStyle=orthogonalEdgeStyle;rounded=0;orthogonalLoop=1;jettySize=auto;html=1;flowAnimation=1;movable=0;resizable=0;rotatable=0;deletable=0;editable=0;locked=1;connectable=0;" edge="1" parent="1" source="Q1b4sD6pPip9hb0ui8Go-76" target="Q1b4sD6pPip9hb0ui8Go-78">
          <mxGeometry relative="1" as="geometry" />
        </mxCell>
        <mxCell id="Q1b4sD6pPip9hb0ui8Go-76" value="downloading track" style="whiteSpace=wrap;html=1;fillColor=#d5e8d4;strokeColor=#82b366;rounded=1;movable=0;resizable=0;rotatable=0;deletable=0;editable=0;locked=1;connectable=0;" vertex="1" parent="1">
          <mxGeometry x="860" y="330" width="120" height="40" as="geometry" />
        </mxCell>
        <mxCell id="Q1b4sD6pPip9hb0ui8Go-78" value="downloading lyrics" style="whiteSpace=wrap;html=1;fillColor=#d5e8d4;strokeColor=#82b366;rounded=1;movable=0;resizable=0;rotatable=0;deletable=0;editable=0;locked=1;connectable=0;" vertex="1" parent="1">
          <mxGeometry x="860" y="430" width="120" height="40" as="geometry" />
        </mxCell>
        <mxCell id="Q1b4sD6pPip9hb0ui8Go-85" style="edgeStyle=orthogonalEdgeStyle;rounded=0;orthogonalLoop=1;jettySize=auto;html=1;exitX=0.5;exitY=1;exitDx=0;exitDy=0;entryX=1;entryY=0.5;entryDx=0;entryDy=0;flowAnimation=1;movable=0;resizable=0;rotatable=0;deletable=0;editable=0;locked=1;connectable=0;" edge="1" parent="1" source="Q1b4sD6pPip9hb0ui8Go-81" target="Q1b4sD6pPip9hb0ui8Go-76">
          <mxGeometry relative="1" as="geometry" />
        </mxCell>
        <mxCell id="Q1b4sD6pPip9hb0ui8Go-86" value="passed" style="edgeLabel;html=1;align=center;verticalAlign=middle;resizable=0;points=[];movable=0;rotatable=0;deletable=0;editable=0;locked=1;connectable=0;" vertex="1" connectable="0" parent="Q1b4sD6pPip9hb0ui8Go-85">
          <mxGeometry x="0.093" relative="1" as="geometry">
            <mxPoint as="offset" />
          </mxGeometry>
        </mxCell>
        <mxCell id="Q1b4sD6pPip9hb0ui8Go-88" value="" style="edgeStyle=orthogonalEdgeStyle;rounded=0;orthogonalLoop=1;jettySize=auto;html=1;flowAnimation=1;movable=0;resizable=0;rotatable=0;deletable=0;editable=0;locked=1;connectable=0;" edge="1" parent="1" source="Q1b4sD6pPip9hb0ui8Go-81" target="Q1b4sD6pPip9hb0ui8Go-87">
          <mxGeometry relative="1" as="geometry" />
        </mxCell>
        <mxCell id="Q1b4sD6pPip9hb0ui8Go-89" value="not passed" style="edgeLabel;html=1;align=center;verticalAlign=middle;resizable=0;points=[];movable=0;rotatable=0;deletable=0;editable=0;locked=1;connectable=0;" vertex="1" connectable="0" parent="Q1b4sD6pPip9hb0ui8Go-88">
          <mxGeometry x="0.0824" y="-2" relative="1" as="geometry">
            <mxPoint as="offset" />
          </mxGeometry>
        </mxCell>
        <mxCell id="Q1b4sD6pPip9hb0ui8Go-81" value="retry 3 times" style="rounded=1;whiteSpace=wrap;html=1;fillColor=#d5e8d4;strokeColor=#82b366;movable=0;resizable=0;rotatable=0;deletable=0;editable=0;locked=1;connectable=0;" vertex="1" parent="1">
          <mxGeometry x="1030" y="293.75" width="60" height="42.5" as="geometry" />
        </mxCell>
        <mxCell id="Q1b4sD6pPip9hb0ui8Go-87" value="let the user know the error and suggest to use vpn" style="rounded=1;whiteSpace=wrap;html=1;fillColor=#d5e8d4;strokeColor=#82b366;movable=0;resizable=0;rotatable=0;deletable=0;editable=0;locked=1;connectable=0;" vertex="1" parent="1">
          <mxGeometry x="1100" y="200" width="90" height="70" as="geometry" />
        </mxCell>
        <mxCell id="Q1b4sD6pPip9hb0ui8Go-90" value="&lt;b&gt;Phase 2 - Credentials Configured&lt;/b&gt;" style="text;html=1;align=center;verticalAlign=middle;whiteSpace=wrap;rounded=0;movable=0;resizable=0;rotatable=0;deletable=0;editable=0;locked=1;connectable=0;" vertex="1" parent="1">
          <mxGeometry x="710" y="80" width="370" height="40" as="geometry" />
        </mxCell>
        <mxCell id="Q1b4sD6pPip9hb0ui8Go-93" value="" style="rounded=0;whiteSpace=wrap;html=1;fillColor=#f8cecc;strokeColor=#b85450;movable=0;resizable=0;rotatable=0;deletable=0;editable=0;locked=1;connectable=0;" vertex="1" parent="1">
          <mxGeometry x="520" y="570" width="770" height="440" as="geometry" />
        </mxCell>
        <mxCell id="Q1b4sD6pPip9hb0ui8Go-99" value="&lt;b&gt;Phase 1 - Credentials Configuration Stage&lt;/b&gt;" style="text;html=1;align=center;verticalAlign=middle;whiteSpace=wrap;rounded=0;movable=0;resizable=0;rotatable=0;deletable=0;editable=0;locked=1;connectable=0;" vertex="1" parent="1">
          <mxGeometry x="770" y="570" width="275" height="50" as="geometry" />
        </mxCell>
        <mxCell id="Q1b4sD6pPip9hb0ui8Go-112" value="" style="edgeStyle=orthogonalEdgeStyle;rounded=0;orthogonalLoop=1;jettySize=auto;html=1;" edge="1" parent="1" source="Q1b4sD6pPip9hb0ui8Go-105" target="Q1b4sD6pPip9hb0ui8Go-111">
          <mxGeometry relative="1" as="geometry" />
        </mxCell>
        <mxCell id="Q1b4sD6pPip9hb0ui8Go-105" value="email&lt;div&gt;password&lt;/div&gt;" style="shape=hexagon;perimeter=hexagonPerimeter2;whiteSpace=wrap;html=1;fixedSize=1;fillColor=#dae8fc;strokeColor=#6c8ebf;" vertex="1" parent="1">
          <mxGeometry x="590" y="610" width="90" height="50" as="geometry" />
        </mxCell>
        <mxCell id="Q1b4sD6pPip9hb0ui8Go-111" value="zotify activation from subprocess" style="whiteSpace=wrap;html=1;fillColor=#dae8fc;strokeColor=#6c8ebf;" vertex="1" parent="1">
          <mxGeometry x="563.75" y="690" width="142.5" height="60" as="geometry" />
        </mxCell>
      </root>
    </mxGraphModel>
  </diagram>
</mxfile>
